<mxfile host="app.diagrams.net" modified="2020-06-02T12:19:12.772Z" agent="5.0 (X11; Linux x86_64) AppleWebKit/537.36 (KHTML, like Gecko) Chrome/80.0.3987.149 Safari/537.36" etag="a8q-OUMYsc7pTA5BSs1J" version="13.1.12" type="github">
  <diagram id="vxbAiqCR5Z4BX0kFHLAY" name="Page-1">
    <mxGraphModel dx="2272" dy="806" grid="1" gridSize="10" guides="1" tooltips="1" connect="1" arrows="1" fold="1" page="1" pageScale="1" pageWidth="850" pageHeight="1400" math="0" shadow="0">
      <root>
        <mxCell id="0" />
        <mxCell id="1" parent="0" />
        <mxCell id="nxXjYKShU67WrZPBkx-F-64" style="edgeStyle=orthogonalEdgeStyle;rounded=0;orthogonalLoop=1;jettySize=auto;html=1;entryX=0.5;entryY=0;entryDx=0;entryDy=0;" parent="1" source="nxXjYKShU67WrZPBkx-F-61" target="nxXjYKShU67WrZPBkx-F-62" edge="1">
          <mxGeometry relative="1" as="geometry" />
        </mxCell>
        <mxCell id="nxXjYKShU67WrZPBkx-F-61" value="init_cfg()" style="rounded=0;whiteSpace=wrap;html=1;" parent="1" vertex="1">
          <mxGeometry x="-758" y="178" width="120" height="60" as="geometry" />
        </mxCell>
        <mxCell id="nxXjYKShU67WrZPBkx-F-65" style="edgeStyle=orthogonalEdgeStyle;rounded=0;orthogonalLoop=1;jettySize=auto;html=1;" parent="1" source="nxXjYKShU67WrZPBkx-F-62" target="nxXjYKShU67WrZPBkx-F-63" edge="1">
          <mxGeometry relative="1" as="geometry" />
        </mxCell>
        <mxCell id="nxXjYKShU67WrZPBkx-F-62" value="randomize_seed()" style="rounded=0;whiteSpace=wrap;html=1;" parent="1" vertex="1">
          <mxGeometry x="-758" y="318" width="120" height="60" as="geometry" />
        </mxCell>
        <mxCell id="nxXjYKShU67WrZPBkx-F-63" value="init_threads()" style="rounded=0;whiteSpace=wrap;html=1;" parent="1" vertex="1">
          <mxGeometry x="-758" y="458" width="120" height="60" as="geometry" />
        </mxCell>
        <mxCell id="nxXjYKShU67WrZPBkx-F-73" style="edgeStyle=orthogonalEdgeStyle;rounded=0;orthogonalLoop=1;jettySize=auto;html=1;" parent="1" source="nxXjYKShU67WrZPBkx-F-66" target="nxXjYKShU67WrZPBkx-F-67" edge="1">
          <mxGeometry relative="1" as="geometry" />
        </mxCell>
        <mxCell id="nxXjYKShU67WrZPBkx-F-66" value="victim" style="rounded=0;whiteSpace=wrap;html=1;" parent="1" vertex="1">
          <mxGeometry x="-422.96999999999997" y="140" width="120" height="60" as="geometry" />
        </mxCell>
        <mxCell id="nxXjYKShU67WrZPBkx-F-72" style="edgeStyle=orthogonalEdgeStyle;rounded=0;orthogonalLoop=1;jettySize=auto;html=1;entryX=0.5;entryY=0;entryDx=0;entryDy=0;" parent="1" source="nxXjYKShU67WrZPBkx-F-67" target="nxXjYKShU67WrZPBkx-F-68" edge="1">
          <mxGeometry relative="1" as="geometry" />
        </mxCell>
        <mxCell id="nxXjYKShU67WrZPBkx-F-67" value="calibrate(victim)" style="rounded=0;whiteSpace=wrap;html=1;" parent="1" vertex="1">
          <mxGeometry x="-422.96999999999997" y="240" width="120" height="60" as="geometry" />
        </mxCell>
        <mxCell id="nxXjYKShU67WrZPBkx-F-77" style="edgeStyle=orthogonalEdgeStyle;rounded=0;orthogonalLoop=1;jettySize=auto;html=1;" parent="1" source="nxXjYKShU67WrZPBkx-F-68" target="nxXjYKShU67WrZPBkx-F-76" edge="1">
          <mxGeometry relative="1" as="geometry" />
        </mxCell>
        <mxCell id="nxXjYKShU67WrZPBkx-F-68" value="allocate_list(csize)" style="rounded=0;whiteSpace=wrap;html=1;" parent="1" vertex="1">
          <mxGeometry x="-422.96999999999997" y="350" width="120" height="60" as="geometry" />
        </mxCell>
        <mxCell id="nxXjYKShU67WrZPBkx-F-71" style="edgeStyle=orthogonalEdgeStyle;rounded=0;orthogonalLoop=1;jettySize=auto;html=1;exitX=0;exitY=0.5;exitDx=0;exitDy=0;entryX=0.25;entryY=1;entryDx=0;entryDy=0;" parent="1" source="nxXjYKShU67WrZPBkx-F-68" target="nxXjYKShU67WrZPBkx-F-68" edge="1">
          <mxGeometry relative="1" as="geometry" />
        </mxCell>
        <mxCell id="nxXjYKShU67WrZPBkx-F-74" value="tb1" style="text;html=1;align=center;verticalAlign=middle;resizable=0;points=[];autosize=1;fillColor=#f8cecc;strokeColor=#b85450;" parent="1" vertex="1">
          <mxGeometry x="-122.88" y="310" width="30" height="20" as="geometry" />
        </mxCell>
        <mxCell id="nxXjYKShU67WrZPBkx-F-75" value="" style="endArrow=classic;html=1;exitX=0.036;exitY=0.528;exitDx=0;exitDy=0;exitPerimeter=0;" parent="1" source="nxXjYKShU67WrZPBkx-F-74" edge="1">
          <mxGeometry width="50" height="50" relative="1" as="geometry">
            <mxPoint x="-562.97" y="360" as="sourcePoint" />
            <mxPoint x="-362.9699999999999" y="321" as="targetPoint" />
          </mxGeometry>
        </mxCell>
        <mxCell id="nxXjYKShU67WrZPBkx-F-82" style="edgeStyle=orthogonalEdgeStyle;rounded=0;orthogonalLoop=1;jettySize=auto;html=1;entryX=0.5;entryY=0;entryDx=0;entryDy=0;" parent="1" source="nxXjYKShU67WrZPBkx-F-76" target="nxXjYKShU67WrZPBkx-F-81" edge="1">
          <mxGeometry relative="1" as="geometry" />
        </mxCell>
        <mxCell id="nxXjYKShU67WrZPBkx-F-76" value="trim_tar_ran()" style="rounded=0;whiteSpace=wrap;html=1;" parent="1" vertex="1">
          <mxGeometry x="-422.96999999999997" y="470" width="120" height="60" as="geometry" />
        </mxCell>
        <mxCell id="nxXjYKShU67WrZPBkx-F-89" style="edgeStyle=orthogonalEdgeStyle;rounded=0;orthogonalLoop=1;jettySize=auto;html=1;" parent="1" source="nxXjYKShU67WrZPBkx-F-78" edge="1">
          <mxGeometry relative="1" as="geometry">
            <mxPoint x="-362.88" y="440" as="targetPoint" />
          </mxGeometry>
        </mxCell>
        <mxCell id="nxXjYKShU67WrZPBkx-F-78" value="tb2" style="text;html=1;align=center;verticalAlign=middle;resizable=0;points=[];autosize=1;fillColor=#d5e8d4;strokeColor=#82b366;" parent="1" vertex="1">
          <mxGeometry x="-242.88" y="430" width="30" height="20" as="geometry" />
        </mxCell>
        <mxCell id="nxXjYKShU67WrZPBkx-F-81" value="test_tar_pthread()" style="rounded=0;whiteSpace=wrap;html=1;" parent="1" vertex="1">
          <mxGeometry x="-422.94" y="580" width="120" height="60" as="geometry" />
        </mxCell>
        <mxCell id="nxXjYKShU67WrZPBkx-F-84" style="edgeStyle=orthogonalEdgeStyle;rounded=0;orthogonalLoop=1;jettySize=auto;html=1;" parent="1" source="nxXjYKShU67WrZPBkx-F-83" edge="1">
          <mxGeometry relative="1" as="geometry">
            <mxPoint x="-362.93999999999994" y="560" as="targetPoint" />
          </mxGeometry>
        </mxCell>
        <mxCell id="nxXjYKShU67WrZPBkx-F-83" value="tend" style="text;html=1;align=center;verticalAlign=middle;resizable=0;points=[];autosize=1;fillColor=#e1d5e7;strokeColor=#9673a6;" parent="1" vertex="1">
          <mxGeometry x="-132.88" y="550" width="40" height="20" as="geometry" />
        </mxCell>
        <mxCell id="nxXjYKShU67WrZPBkx-F-91" style="edgeStyle=orthogonalEdgeStyle;rounded=0;orthogonalLoop=1;jettySize=auto;html=1;" parent="1" source="nxXjYKShU67WrZPBkx-F-90" edge="1">
          <mxGeometry relative="1" as="geometry">
            <mxPoint x="-262.88" y="440" as="targetPoint" />
          </mxGeometry>
        </mxCell>
        <mxCell id="nxXjYKShU67WrZPBkx-F-92" style="edgeStyle=orthogonalEdgeStyle;rounded=0;orthogonalLoop=1;jettySize=auto;html=1;" parent="1" source="nxXjYKShU67WrZPBkx-F-90" edge="1">
          <mxGeometry relative="1" as="geometry">
            <mxPoint x="-262.88" y="560" as="targetPoint" />
          </mxGeometry>
        </mxCell>
        <mxCell id="nxXjYKShU67WrZPBkx-F-90" value="time_trim" style="text;html=1;align=center;verticalAlign=middle;resizable=0;points=[];autosize=1;" parent="1" vertex="1">
          <mxGeometry x="-292.88" y="498" width="60" height="20" as="geometry" />
        </mxCell>
        <mxCell id="nxXjYKShU67WrZPBkx-F-94" style="edgeStyle=orthogonalEdgeStyle;rounded=0;orthogonalLoop=1;jettySize=auto;html=1;" parent="1" source="nxXjYKShU67WrZPBkx-F-93" edge="1">
          <mxGeometry relative="1" as="geometry">
            <mxPoint x="-162.88" y="320" as="targetPoint" />
          </mxGeometry>
        </mxCell>
        <mxCell id="nxXjYKShU67WrZPBkx-F-95" style="edgeStyle=orthogonalEdgeStyle;rounded=0;orthogonalLoop=1;jettySize=auto;html=1;" parent="1" source="nxXjYKShU67WrZPBkx-F-93" edge="1">
          <mxGeometry relative="1" as="geometry">
            <mxPoint x="-162.88" y="560" as="targetPoint" />
          </mxGeometry>
        </mxCell>
        <mxCell id="nxXjYKShU67WrZPBkx-F-93" value="time_all" style="text;html=1;align=center;verticalAlign=middle;resizable=0;points=[];autosize=1;" parent="1" vertex="1">
          <mxGeometry x="-192.88" y="470" width="60" height="20" as="geometry" />
        </mxCell>
        <mxCell id="a9cllLre5tnVkpEgNxOf-1" value="free_list(candidate)" style="rounded=0;whiteSpace=wrap;html=1;" vertex="1" parent="1">
          <mxGeometry x="-422.94" y="670" width="120" height="60" as="geometry" />
        </mxCell>
        <mxCell id="a9cllLre5tnVkpEgNxOf-2" value="free_list(victim)" style="rounded=0;whiteSpace=wrap;html=1;" vertex="1" parent="1">
          <mxGeometry x="-422.94" y="760" width="120" height="60" as="geometry" />
        </mxCell>
      </root>
    </mxGraphModel>
  </diagram>
</mxfile>
